<svg xmlns="http://www.w3.org/2000/svg" width="30.37" height="32.906" viewBox="0 0 30.37 32.906">
  <path id="Path_27" data-name="Path 27" d="M-300.34-55.426h2.518c.843,0,1.687,0,2.53,0a1.272,1.272,0,0,1,1.266,1.224c.073,1.389.157,2.777.234,4.166.092,1.683.178,3.367.272,5.05.093,1.666.2,3.332.288,5,.092,1.65.176,3.3.266,4.95.057,1.052.116,2.1.182,3.156a1.593,1.593,0,0,1-.32,1.351,1.293,1.293,0,0,1-.969.409q-4.364,0-8.729,0H-316.49c-1.746,0-3.492-.025-5.237.007a1.347,1.347,0,0,1-1.406-1.471c.154-2.288.27-4.578.4-6.867.107-1.919.207-3.839.313-5.758.094-1.692.193-3.383.287-5.075.091-1.624.177-3.249.269-4.873a1.265,1.265,0,0,1,1.347-1.272c1.56,0,3.12,0,4.681,0h.287a7.556,7.556,0,0,1,2.826-5.88,7.349,7.349,0,0,1,5.061-1.7A7.651,7.651,0,0,1-300.34-55.426ZM-319.4-52.885c-.372,6.753-.743,13.482-1.115,20.223h25.141l-1.114-20.217h-3.872v5.034h-2.529v-5.036h-10.12v5.032h-2.541v-5.036Zm16.527-2.551a4.953,4.953,0,0,0-2.682-4.431,4.817,4.817,0,0,0-5.506.472,4.9,4.9,0,0,0-1.947,3.959Z" transform="translate(323.137 63.017)" fill="#fbb03a"/>
</svg>
