<svg id="Component_1_1" data-name="Component 1 – 1" xmlns="http://www.w3.org/2000/svg" width="85.579" height="56.707" viewBox="0 0 85.579 56.707">
  <path id="Path_33" data-name="Path 33" d="M186.622,136c1.027.176,2.065.305,3.08.537a19.228,19.228,0,0,1,10.346,6.185c.948,1.074,1.759,2.267,2.689,3.479l-5.775,3a13.777,13.777,0,0,0-8.486-6.433,13.581,13.581,0,0,0-7.723.271,20.209,20.209,0,0,1,4.713,13,19.968,19.968,0,0,1-4.813,13c6.827,1.752,12.17-.217,16.224-5.925l5.709,2.928c-.88,1.146-1.656,2.3-2.571,3.322a19.874,19.874,0,0,1-24.237,4.366.816.816,0,0,0-.879-.03,19.812,19.812,0,0,1-21.821-1.981,19.933,19.933,0,0,1-4.945-5.73l5.6-2.882c4.023,5.686,9.379,7.685,16.136,5.96-6.375-8.693-6.36-17.328-.087-26.069a13.761,13.761,0,0,0-9.113.241,14.028,14.028,0,0,0-7.018,5.947L148,146.265a20.494,20.494,0,0,1,3.567-4.593,19.815,19.815,0,0,1,10.076-5.319c.724-.151,1.461-.237,2.192-.353h3.317c.294.043.588.089.882.129a21.474,21.474,0,0,1,6.943,2.262.894.894,0,0,0,.711-.013,19.8,19.8,0,0,1,5.48-1.986c.852-.156,1.712-.263,2.568-.393Zm-11.313,29.458c5.214-5.327,4.939-14.026-.025-18.762A13.5,13.5,0,0,0,175.309,165.458Z" transform="translate(-132.26 -136)"/>
  <path id="Path_34" data-name="Path 34" d="M6.593,553.6A7.35,7.35,0,0,1,3.6,552.3a6.561,6.561,0,0,1-2.516-6.824,6.449,6.449,0,0,1,12.192-1.607l-2.057,1.476a4.108,4.108,0,0,0-2.6-2.424,3.835,3.835,0,0,0-2.466.088A4.13,4.13,0,0,0,3.48,547.3a4.194,4.194,0,0,0,2.993,3.576,4.058,4.058,0,0,0,4.7-2.351l2.1,1.481a6.619,6.619,0,0,1-4.58,3.482,1.983,1.983,0,0,0-.281.1Z" transform="translate(-0.913 -496.89)"/>
  <path id="Path_36" data-name="Path 36" d="M433.8,554.14h-2.572V541.1a10.967,10.967,0,0,0,1.8-.017,2.452,2.452,0,0,1,2.742,1.381c1.3,2.054,2.793,3.987,4.207,5.97.079.112.167.217.325.423v-7.746h2.542v13.059c-.607,0-1.192.022-1.773-.015a.728.728,0,0,1-.434-.313q-3.321-4.573-6.626-9.159c-.041-.057-.086-.111-.208-.269Z" transform="translate(-385.191 -497.696)"/>
  <path id="Path_37" data-name="Path 37" d="M269.809,554.621c.666-1.491,1.3-2.909,1.934-4.331q1.839-4.156,3.663-8.318a.6.6,0,0,1,.669-.433c.907.033,1.817-.005,2.724.025a.671.671,0,0,1,.5.308q2.787,6.18,5.536,12.377a3.567,3.567,0,0,1,.117.372c-.917,0-1.79.016-2.661-.015a.654.654,0,0,1-.455-.321c-.32-.632-.576-1.3-.9-1.925a.685.685,0,0,0-.5-.315q-3.02-.032-6.04,0a.693.693,0,0,0-.5.324c-.318.613-.588,1.252-.866,1.885a.509.509,0,0,1-.548.377C271.625,554.6,270.769,554.621,269.809,554.621Zm9.907-5.247L277.4,544.2l-2.212,5.175Z" transform="translate(-241.039 -498.149)"/>
  <path id="Path_38" data-name="Path 38" d="M583.45,554.911v-13h9.1v2.564H586v2.617h6.048v2.62h-6.041V552.3h7.462v2.611Z" transform="translate(-521.122 -498.478)"/>
  <path id="Path_39" data-name="Path 39" d="M151.165,549.1h-6.613v5.713h-2.488V541.792h2.474v4.616h6.6v-4.623h2.553V554.8h-2.523Z" transform="translate(-126.962 -498.369)"/>
  <path id="Path_40" data-name="Path 40" d="M713.889,552.209h7.034v2.58h-9.566v-13.03h2.531Z" transform="translate(-635.345 -498.345)"/>
</svg>
