<svg xmlns="http://www.w3.org/2000/svg" width="36.697" height="36.701" viewBox="0 0 36.697 36.701">
  <path id="Path_41" data-name="Path 41" d="M-944.97-328.424h4.689c.234-1.842.457-3.6.7-5.489h-5.428c0-1.5-.077-2.9.024-4.29a2.073,2.073,0,0,1,2.256-1.915c1.048-.033,2.1-.007,3.31-.007,0-1.581.018-3.076-.025-4.57,0-.162-.339-.423-.549-.456a13.607,13.607,0,0,0-6.666.432,5.652,5.652,0,0,0-4.057,5.456c-.063,1.4-.029,2.812-.038,4.219,0,.342,0,.683,0,1.129H-955.6v5.5c1.347,0,2.673.013,4-.007.53-.008.859.072.855.731-.026,4.395-.023,8.79-.033,13.186a1.388,1.388,0,0,1-.1.3c-.292.018-.627.056-.962.056q-7.859.006-15.719,0c-2.033,0-2.811-.761-2.813-2.8q-.015-15.56-.01-31.12c0-1.978.8-2.772,2.736-2.773q15.455-.007,30.91-.005c2.307,0,3.05.736,3.05,3.01q0,15.4-.017,30.8c0,2.139-.784,2.887-2.951,2.882-2.738-.006-5.477,0-8.309,0Z" transform="translate(970.389 350.845)" fill="#acacac"/>
</svg>
