<svg xmlns="http://www.w3.org/2000/svg" width="36.554" height="36.598" viewBox="0 0 36.554 36.598">
  <g id="Group_52" data-name="Group 52" transform="translate(0 0)">
    <path id="Path_46" data-name="Path 46" d="M-719.07-332.353c0-3.234-.015-6.467,0-9.7a8.223,8.223,0,0,1,8.51-8.522q9.753-.052,19.506-.006a8.3,8.3,0,0,1,8.521,8.543c.008,6.572.016,13.145-.013,19.717a8.2,8.2,0,0,1-6.234,8.029,9.879,9.879,0,0,1-2.4.276q-9.542.028-19.084,0c-5.383-.011-8.818-3.471-8.814-8.848Q-719.068-327.608-719.07-332.353Zm4.852.095h0c0,1.829-.005,3.658,0,5.486a7.7,7.7,0,0,0,7.906,7.952q5.486.023,10.973,0a7.745,7.745,0,0,0,7.948-7.931q.021-5.486,0-10.973a7.685,7.685,0,0,0-7.822-7.927q-5.591-.057-11.184,0a7.637,7.637,0,0,0-7.822,7.8C-714.236-335.986-714.218-334.122-714.218-332.258Z" transform="translate(719.075 350.602)" fill="#acacac"/>
    <path id="Path_47" data-name="Path 47" d="M-673.589-315.118c1.9,0,3.8-.026,5.7.006a5.064,5.064,0,0,1,5.218,5.289q.026,5.643,0,11.286a5.053,5.053,0,0,1-5.246,5.255q-5.7.028-11.392,0a4.977,4.977,0,0,1-5.2-4.967q-.143-5.956,0-11.918a4.989,4.989,0,0,1,5.23-4.947C-677.386-315.138-675.488-315.118-673.589-315.118Zm6.935,10.958a6.911,6.911,0,0,0-6.919-6.991,6.976,6.976,0,0,0-7.014,6.925,7,7,0,0,0,6.947,7.005A6.944,6.944,0,0,0-666.653-304.159Zm1.86-7.217a1.593,1.593,0,0,0-1.549-1.646,1.563,1.563,0,0,0-1.668,1.514,1.6,1.6,0,0,0,1.587,1.712A1.628,1.628,0,0,0-664.794-311.377Z" transform="translate(691.868 322.613)" fill="#acacac"/>
    <path id="Path_48" data-name="Path 48" d="M-653.856-280.226a4.533,4.533,0,0,1,4.5-4.494,4.568,4.568,0,0,1,4.521,4.488,4.565,4.565,0,0,1-4.568,4.544A4.525,4.525,0,0,1-653.856-280.226Z" transform="translate(667.619 298.623)" fill="#acacac"/>
  </g>
</svg>
