<svg id="Group_67" data-name="Group 67" xmlns="http://www.w3.org/2000/svg" width="42.545" height="42.545" viewBox="0 0 42.545 42.545">
  <g id="Group_1" data-name="Group 1" transform="translate(5.058 5.064)">
    <path id="Path_1" data-name="Path 1" d="M392.143,302.7H388.7v2.586h3c4.105-.1,7.393-2.912,7.393-7.039,0-.038-.005-.074-.006-.112A7.367,7.367,0,0,1,392.143,302.7Z" transform="translate(-373.017 -292.771)" fill="#c0c1c3"/>
    <path id="Path_2" data-name="Path 2" d="M266.139,338.693a10.274,10.274,0,0,1,1.279-.259h3.07v-2.586h-2.632a10.292,10.292,0,0,0-1.279.259,10.048,10.048,0,0,0-7.429,9.324A10.063,10.063,0,0,1,266.139,338.693Z" transform="translate(-259.149 -325.918)" fill="#c0c1c3"/>
    <path id="Path_3" data-name="Path 3" d="M394.39,450.336a3.129,3.129,0,0,0-3.362-2.83,3.671,3.671,0,0,0-2.329.8v2.285a3.771,3.771,0,0,1,1.89-.494c1.858,0,3.8,1.076,3.8,2.64Z" transform="translate(-373.017 -424.06)" fill="#c0c1c3"/>
    <path id="Path_4" data-name="Path 4" d="M391.149,256.4a3.065,3.065,0,0,1,2.952,2.239,3.066,3.066,0,1,0-5.559-2.1,2.769,2.769,0,0,0,0,.691v.626A3.062,3.062,0,0,1,391.149,256.4Z" transform="translate(-372.86 -253.818)" fill="#c0c1c3"/>
  </g>
  <path id="Path_5" data-name="Path 5" d="M253.37,257.073l-1.62-1.763v-9.087a5.043,5.043,0,0,0-.026-.514c-.311-3.163-3.461-5.652-7.3-5.652a8.477,8.477,0,0,0-2.8.467v-9.912h3.444c4.1-.1,7.393-2.912,7.393-7.039a7.591,7.591,0,0,0-15.171-.4c0,.134-.009.268-.009.4v3.245h-3.072l-.168.013-.605.056a.324.324,0,0,1-.065,0,13.687,13.687,0,0,0,1.681,27.27,13.09,13.09,0,0,0,2.23-.186v3.582h4.343V244.922a3.672,3.672,0,0,1,2.329-.8,3.129,3.129,0,0,1,3.362,2.83v10.6h5.842A.29.29,0,0,0,253.37,257.073ZM241.621,223.4a3.067,3.067,0,1,1,3.046,3.414h-3.046v-2.722m-4.343,26.453a10.053,10.053,0,0,1-3.91-19.678,10.3,10.3,0,0,1,1.279-.259h2.632Z" transform="translate(-220.88 -215.496)"/>
  <g id="Group_2" data-name="Group 2" transform="translate(0 0)">
    <path id="Path_6" data-name="Path 6" d="M259.909,254.525H217.364V211.98h42.545Zm-41.577-.968h40.608V212.948H218.332Z" transform="translate(-217.364 -211.98)"/>
  </g>
</svg>
