<svg xmlns="http://www.w3.org/2000/svg" width="36.56" height="36.62" viewBox="0 0 36.56 36.62">
  <path id="Path_43" data-name="Path 43" d="M-190.979-332.286c0,3.3.029,6.608-.007,9.911a8.173,8.173,0,0,1-8.2,8.289q-10.068.1-20.138-.01a8.2,8.2,0,0,1-8.2-8.417q-.021-9.7,0-19.4c.012-5.208,3.526-8.713,8.756-8.728q9.542-.027,19.084,0c5.214.011,8.7,3.532,8.7,8.764q.006,4.8,0,9.595Zm-30.347-10.236c-1.044,2.9-.761,5.425,1.5,7.627l-2.087-.593c.01,2.908,1.81,4.384,4.129,5.614l-2.258.187a6.745,6.745,0,0,0,5.175,3.889,17.4,17.4,0,0,1-3.673,1.826,31.38,31.38,0,0,1-4.086.716,17.779,17.779,0,0,0,11.019,2c8.728-1.288,13.462-9.963,13.409-15.7a1.983,1.983,0,0,1,.744-1.624c.705-.642,1.343-1.359,2.2-2.245l-3.016.764,2.059-2.764-.245-.17c-.444.21-.882.433-1.332.628a2.551,2.551,0,0,1-2.961-.238,5.151,5.151,0,0,0-5.774-.382,5.451,5.451,0,0,0-3.108,5.014c-.011.446,0,.893,0,1.337C-212.961-336.5-216.985-338.516-221.326-342.522Z" transform="translate(227.528 350.655)" fill="#acacac"/>
</svg>
