<svg xmlns="http://www.w3.org/2000/svg" width="36.608" height="36.545" viewBox="0 0 36.608 36.545">
  <g id="Group_50" data-name="Group 50" transform="translate(0 0)">
    <path id="Path_42" data-name="Path 42" d="M44.895-350.473c3.3,0,6.607-.006,9.911,0a8.065,8.065,0,0,1,8.321,7.8c.171,4.492.069,9,.081,13.493.006,2.179.019,4.358,0,6.537-.054,5.236-3.553,8.705-8.772,8.709q-9.595.007-19.19,0a8.312,8.312,0,0,1-8.614-8.556q-.02-9.7,0-19.4a8.263,8.263,0,0,1,8.565-8.58C38.428-350.479,41.661-350.472,44.895-350.473Zm1.95,13.1c.254-.043.39-.06.523-.088,2.558-.536,3.622.547,2.621,2.948a28.353,28.353,0,0,1-2.879,4.86c-.582.857-1.47.691-1.865-.29a17.684,17.684,0,0,1-.928-3.013c-.46-2.234-.757-4.5-1.252-6.727-.739-3.316-2.918-4.145-5.649-2.108-1.685,1.256-3.224,2.712-4.791,4.119a.954.954,0,0,0-.136.871c.4.891.942,1,1.969.287.882-.616,1.508-.451,2,.395a8.854,8.854,0,0,1,.875,1.9c.739,2.489,1.385,5.006,2.137,7.491a18.084,18.084,0,0,0,1.335,3.417c1.151,2.114,2.65,2.554,4.869,1.575a6.15,6.15,0,0,0,1.348-.809,32.5,32.5,0,0,0,10.054-13.428,6.991,6.991,0,0,0,.089-5.047,2.92,2.92,0,0,0-2.54-2.071C50.82-343.618,47.75-341.408,46.845-337.373Z" transform="translate(-26.618 350.475)" fill="#acacac"/>
  </g>
</svg>
