<svg xmlns="http://www.w3.org/2000/svg" width="36.578" height="36.582" viewBox="0 0 36.578 36.582">
  <g id="Group_51" data-name="Group 51" transform="translate(0 0)">
    <path id="Path_44" data-name="Path 44" d="M-436.78-332.276q0,4.8,0,9.6a8.307,8.307,0,0,1-8.68,8.7q-9.6.006-19.191,0a8.313,8.313,0,0,1-8.7-8.677q0-9.543,0-19.085c0-5.273,3.517-8.8,8.789-8.808q9.49-.015,18.98,0c5.3.01,8.766,3.47,8.8,8.789.018,3.163,0,6.327,0,9.49Zm-18.121-9.462q0-.149,0-.3c-3.3.136-6.6.192-9.9.437a3.769,3.769,0,0,0-3.746,3.729c-.147,3.71-.117,7.432-.01,11.145a3.844,3.844,0,0,0,3.588,3.778,36.854,36.854,0,0,0,4.626.261c5.057-.045,10.116-.088,15.169-.277a3.743,3.743,0,0,0,3.592-3.538c.144-3.538.27-7.094.082-10.625-.173-3.262-1.666-4.5-4.972-4.595C-449.279-341.8-452.091-341.739-454.9-341.739Z" transform="translate(473.358 350.564)" fill="#acacac"/>
    <path id="Path_45" data-name="Path 45" d="M-392.7-278.127l-7.277,3.821v-7.636Z" transform="translate(415.461 296.423)" fill="#acacac"/>
  </g>
</svg>
